<?xml version="1.0" encoding="UTF-8"?>
<!-- Uploaded to: ICON Repo, www.iconrepo.com, Generator: ICON Repo Mixer Tools -->
<svg fill="#000000" width="800px" height="800px" version="1.1" viewBox="144 144 512 512" xmlns="http://www.w3.org/2000/svg">
 <g>
  <path d="m517.61 242.56h-7.3984v-47.234c0-4.1758-1.6602-8.1797-4.6133-11.133-2.9492-2.9492-6.957-4.6094-11.133-4.6094h-236.16c-12.527 0-24.539 4.9766-33.398 13.832-8.8555 8.8594-13.832 20.875-13.832 33.398v251.91c0 5.625 3 10.824 7.8711 13.633 4.8711 2.8125 10.875 2.8125 15.746 0 4.8711-2.8086 7.8711-8.0078 7.8711-13.633v-207.51c5.0469 1.8359 10.371 2.793 15.742 2.8359h259.3c4.6094 0 8.3438 3.7344 8.3438 8.3438v298.19c0 4.6094-3.7344 8.3438-8.3438 8.3438h-266.7c-2.2148 0-4.3359-0.87891-5.8984-2.4414-1.5664-1.5664-2.4453-3.6875-2.4453-5.9023 0-5.625-3-10.82-7.8711-13.633s-10.875-2.8125-15.746 0-7.8711 8.0078-7.8711 13.633c0 10.566 4.1953 20.695 11.668 28.168 7.4688 7.4688 17.602 11.664 28.164 11.664h266.7c10.566 0 20.695-4.1953 28.168-11.664 7.4688-7.4727 11.664-17.602 11.664-28.168v-298.19c0-10.562-4.1953-20.695-11.664-28.164-7.4727-7.4727-17.602-11.668-28.168-11.668zm-275.05-15.746c0-4.1758 1.6562-8.1797 4.6094-11.133 2.9531-2.9492 6.957-4.6094 11.133-4.6094h220.42v31.488h-220.42c-4.1758 0-8.1797-1.6602-11.133-4.6133-2.9531-2.9531-4.6094-6.957-4.6094-11.133z"/>
  <path d="m332.46 373.08c-2.957-2.9844-6.9805-4.6602-11.18-4.6602-4.1953 0-8.2227 1.6758-11.176 4.6602l-47.23 47.23h-0.003906c-2.9805 2.957-4.6562 6.9805-4.6562 11.18 0 4.1953 1.6758 8.2188 4.6562 11.176l47.234 47.234c2.9531 2.9805 6.9805 4.6562 11.176 4.6562 4.1992 0 8.2227-1.6758 11.18-4.6562 2.9805-2.957 4.6562-6.9805 4.6562-11.18s-1.6758-8.2227-4.6562-11.18l-36.211-36.051 36.211-36.055c2.9805-2.957 4.6562-6.9805 4.6562-11.18 0-4.1992-1.6758-8.2227-4.6562-11.176z"/>
  <path d="m436.05 489.9c2.957 2.9805 6.9805 4.6562 11.18 4.6562s8.2227-1.6758 11.18-4.6562l47.23-47.23v-0.003907c2.9805-2.957 4.6562-6.9805 4.6562-11.176 0-4.1992-1.6758-8.2227-4.6562-11.18l-47.23-47.23c-3.9961-3.9961-9.8164-5.5547-15.27-4.0938-5.457 1.4609-9.7188 5.7227-11.18 11.18-1.4609 5.4531 0.097656 11.273 4.0898 15.27l36.215 36.055-36.211 36.055-0.003907-0.003907c-2.9805 2.957-4.6562 6.9805-4.6562 11.18s1.6758 8.2227 4.6562 11.18z"/>
  <path d="m368.51 510.21c3.5938 0.10547 7.1172-1.0273 9.9844-3.2031 2.8633-2.1758 4.8945-5.2695 5.7578-8.7617l31.488-125.95c1.1328-4.1836 0.49219-8.6484-1.7734-12.34-2.2656-3.6953-5.9492-6.293-10.191-7.1836-4.0508-1-8.332-0.34766-11.902 1.8047-3.5742 2.1562-6.1445 5.6406-7.1484 9.6875l-31.488 125.95c-1.293 4.1797-0.78906 8.7109 1.3906 12.504 2.1797 3.793 5.8398 6.5078 10.102 7.4922 1.2578 0.15234 2.5234 0.15234 3.7812 0z"/>
 </g>
</svg>