<?xml version="1.0" encoding="UTF-8"?>
<!-- Uploaded to: SVG Repo, www.svgrepo.com, Generator: SVG Repo Mixer Tools -->
<svg fill="#000000" width="800px" height="800px" version="1.1" viewBox="144 144 512 512" xmlns="http://www.w3.org/2000/svg">
 <g>
  <path d="m557.36 475.77 16.352-171.68c0.007812-0.070312-0.070313-0.078125-0.078126-0.14062 0.054688-0.39453 0.16406-0.76953 0.16406-1.1641 0-26.316-117.11-29.156-167.45-29.156-50.34 0-167.43 2.8438-167.43 29.156 0 0.41016 0.10938 0.78906 0.16406 1.1719 0 0.070312-0.085937 0.0625-0.078125 0.13281l16.336 171.68c-47.027 17.949-72.887 43.004-72.887 70.957 0 53.457 98.344 95.34 223.89 95.34 125.55 0 223.89-41.879 223.89-95.34 0.007812-27.957-25.852-53.016-72.871-70.957zm-17.285 15.398c-4.1797 13.609-53.449 32.898-133.74 32.898-80.375 0-129.67-19.332-133.73-32.953l-16.492-173.35c34.402 12.523 111.76 14.199 150.22 14.199 38.461 0 115.84-1.6758 150.25-14.199zm-133.73 48.641c49.594 0 103.85-7.8633 131.46-24.734l-1.582 16.586c-3.9531 13.648-51.852 33.047-129.88 33.047-77.988 0-125.91-19.398-129.87-33.055l-1.5898-16.672c27.582 16.918 81.82 24.828 131.46 24.828zm0-250.44c77.422 0 130.52 7.1094 147.48 13.422-16.957 6.3125-70.047 13.43-147.48 13.43-77.414 0-130.5-7.1172-147.45-13.43 16.953-6.3047 70.043-13.422 147.45-13.422zm0 336.96c-124.5 0-208.14-41.164-208.14-79.594 0-19.973 21.262-39.621 58.695-54.672l3.9688 41.707c0.03125 0.33984 0.085938 0.67578 0.16406 1.0078 7.1797 31.395 80.367 45.695 145.32 45.695 64.984 0 138.18-14.297 145.33-45.703 0.070312-0.33203 0.125-0.66016 0.16406-1l3.9688-41.707c37.422 15.043 58.688 34.691 58.688 54.672-0.007812 38.43-83.648 79.594-208.16 79.594z"/>
  <path d="m630.48 189.23h-388.65c-7.4961 0-13.586 6.0781-13.586 13.562v29.961c0 7.4688 6.0938 13.555 13.586 13.555h388.65c7.4688 0 13.555-6.0781 13.555-13.555l0.003906-29.969c0-7.4805-6.0781-13.555-13.555-13.555zm-64.363 15.742v25.586h-259.95v-25.586zm-322.12 0h46.43v25.586h-46.43zm384.3 25.586h-46.43v-25.586h46.43z"/>
  <path d="m205.11 217.77c0-4.3516-3.5273-7.8711-7.8711-7.8711h-33.402c-4.3438 0-7.8711 3.5195-7.8711 7.8711 0 4.3516 3.5273 7.8711 7.8711 7.8711h33.402c4.3477 0 7.8711-3.5273 7.8711-7.8711z"/>
  <path d="m192.17 193.34c1.4805 1.2422 3.2812 1.8516 5.0703 1.8516 2.2422 0 4.4648-0.95312 6.0234-2.793 2.8008-3.3203 2.3789-8.2891-0.94531-11.09l-25.535-21.535c-3.332-2.8125-8.3008-2.3711-11.102 0.94141-2.8008 3.3203-2.3789 8.2891 0.94531 11.09z"/>
  <path d="m202.32 254.2c3.3203-2.8008 3.7461-7.7695 0.9375-11.09-2.8008-3.3281-7.7617-3.7539-11.09-0.94531l-25.535 21.547c-3.3203 2.8008-3.7461 7.7695-0.9375 11.09 1.5586 1.8438 3.7773 2.793 6.0234 2.793 1.793 0 3.5977-0.60547 5.0781-1.8516z"/>
  <path d="m189.37 345.14v6.0625c0 4.3516 3.5273 7.8711 7.8711 7.8711s7.8711-3.5195 7.8711-7.8711v-6.0625h6.0625c4.3438 0 7.8711-3.5195 7.8711-7.8711s-3.5273-7.8711-7.8711-7.8711h-6.0625v-6.0312c0-4.3516-3.5273-7.8711-7.8711-7.8711s-7.8711 3.5195-7.8711 7.8711v6.0312h-6.0234c-4.3438 0-7.8711 3.5195-7.8711 7.8711s3.5273 7.8711 7.8711 7.8711z"/>
  <path d="m323.91 400.15h-6.0312v-6.0312c0-4.3516-3.5273-7.8711-7.8711-7.8711s-7.8711 3.5195-7.8711 7.8711v6.0312h-6.0625c-4.3438 0-7.8711 3.5195-7.8711 7.8711 0 4.3516 3.5273 7.8711 7.8711 7.8711h6.0625v6.0625c0 4.3516 3.5273 7.8711 7.8711 7.8711s7.8711-3.5195 7.8711-7.8711v-6.0625h6.0312c4.3438 0 7.8711-3.5195 7.8711-7.8711 0.003906-4.3516-3.5234-7.8711-7.8711-7.8711z"/>
 </g>
</svg>