<?xml version="1.0" encoding="UTF-8"?>
<!-- Uploaded to: ICON Repo, www.iconrepo.com, Generator: ICON Repo Mixer Tools -->
<svg fill="#000000" width="800px" height="800px" version="1.1" viewBox="144 144 512 512" xmlns="http://www.w3.org/2000/svg">
 <g fill-rule="evenodd">
  <path d="m400 557.44c-11.594 0-20.992 9.3984-20.992 20.992s9.3984 20.992 20.992 20.992 20.992-9.3984 20.992-20.992-9.3984-20.992-20.992-20.992zm-41.984 20.992c0-23.188 18.797-41.984 41.984-41.984s41.984 18.797 41.984 41.984-18.797 41.984-41.984 41.984-41.984-18.797-41.984-41.984z"/>
  <path d="m400 200.57c-11.594 0-20.992 9.3984-20.992 20.992s9.3984 20.992 20.992 20.992 20.992-9.3984 20.992-20.992-9.3984-20.992-20.992-20.992zm-41.984 20.992c0-23.188 18.797-41.984 41.984-41.984s41.984 18.797 41.984 41.984-18.797 41.984-41.984 41.984-41.984-18.797-41.984-41.984z"/>
  <path d="m504.96 326.53c-11.594 0-20.992 9.3984-20.992 20.992s9.3984 20.992 20.992 20.992c11.598 0 20.992-9.3984 20.992-20.992s-9.3945-20.992-20.992-20.992zm-41.98 20.992c0-23.188 18.793-41.984 41.98-41.984 23.191 0 41.984 18.797 41.984 41.984s-18.793 41.984-41.984 41.984c-23.188 0-41.98-18.797-41.98-41.984z"/>
  <path d="m410.5 253.05v293.89h-20.992v-293.89z"/>
  <path d="m515.45 379.01v41.984c0 28.98-23.496 52.48-52.477 52.48h-62.977v-20.992h62.977c17.387 0 31.484-14.102 31.484-31.488v-41.984z"/>
  <path d="m295.04 295.04c11.594 0 20.992 9.3984 20.992 20.992s-9.3984 20.992-20.992 20.992-20.992-9.3984-20.992-20.992 9.3984-20.992 20.992-20.992zm41.984 20.992c0-23.188-18.797-41.984-41.984-41.984s-41.984 18.797-41.984 41.984 18.797 41.984 41.984 41.984 41.984-18.797 41.984-41.984z"/>
  <path d="m284.54 347.52v41.984c0 28.98 23.496 52.48 52.48 52.48h62.977v-20.992h-62.977c-17.391 0-31.488-14.102-31.488-31.488v-41.984z"/>
 </g>
</svg>