<?xml version="1.0" encoding="UTF-8"?>
<!-- Uploaded to: ICON Repo, www.iconrepo.com, Generator: ICON Repo Mixer Tools -->
<svg fill="#000000" width="800px" height="800px" version="1.1" viewBox="144 144 512 512" xmlns="http://www.w3.org/2000/svg">
 <g>
  <path d="m583.89 598.32v4.3516h31.371v-126h-31.371z"/>
  <path d="m500.39 562.91c6.1719 0.011719 12.098-2.4297 16.469-6.7891 4.375-4.3594 6.8359-10.277 6.8438-16.449 0.007813-6.1719-2.4375-12.098-6.8008-16.465-4.3594-4.3711-10.277-6.8281-16.449-6.832-6.1758-0.003906-12.098 2.4453-16.465 6.8086-4.3672 4.3633-6.8203 10.285-6.8203 16.457 0.011719 6.1602 2.4609 12.062 6.8125 16.422s10.25 6.8203 16.41 6.8477z"/>
  <path d="m334.46 268.32 29.449 70.992h72.184l29.449-70.992-15.48-37.281h-100.12z"/>
  <path d="m216.11 476.67h-31.375v126h31.375z"/>
  <path d="m400 562.91c6.1719 0.011719 12.098-2.4297 16.469-6.7891 4.375-4.3594 6.8359-10.277 6.8438-16.449s-2.4375-12.098-6.8008-16.465c-4.3594-4.3711-10.277-6.8281-16.453-6.832-6.1719-0.003906-12.094 2.4453-16.461 6.8086-4.3672 4.3633-6.8203 10.285-6.8203 16.457 0.011718 6.1602 2.4609 12.062 6.8125 16.422 4.3516 4.3594 10.25 6.8203 16.41 6.8477z"/>
  <path d="m363.91 197.33-10.168 24.551h92.52l-10.168-24.551z"/>
  <path d="m299.56 562.91c6.1719 0.011719 12.098-2.4297 16.469-6.7891 4.375-4.3594 6.8359-10.277 6.8438-16.449 0.007812-6.1719-2.4375-12.098-6.8008-16.465-4.3594-4.3711-10.277-6.8281-16.453-6.832-6.1719-0.003906-12.094 2.4453-16.461 6.8086s-6.8203 10.285-6.8203 16.457c0.011718 6.1602 2.4609 12.062 6.8125 16.422 4.3516 4.3594 10.25 6.8203 16.41 6.8477z"/>
  <path d="m225.27 593.73h349.46v-108.13h-349.46zm275.12-86.469c8.6055-0.011719 16.863 3.3945 22.953 9.4727 6.0898 6.082 9.5156 14.332 9.5195 22.938 0.003906 8.6055-3.4141 16.859-9.5 22.945-6.082 6.0859-14.336 9.5-22.941 9.4961-8.6055-0.003907-16.859-3.4258-22.938-9.5195-6.0781-6.0898-9.4883-14.348-9.4766-22.953 0.011719-8.582 3.4297-16.812 9.5-22.883 6.0703-6.0703 14.297-9.4844 22.883-9.4961zm-100.39 0c8.6055-0.011719 16.863 3.3945 22.953 9.4727 6.0898 6.082 9.5156 14.332 9.5195 22.938s-3.4141 16.859-9.5 22.945c-6.0859 6.0859-14.34 9.5-22.945 9.4961-8.6055-0.003907-16.855-3.4258-22.934-9.5195-6.0781-6.0898-9.4883-14.348-9.4766-22.953 0.023437-8.5781 3.4453-16.801 9.5117-22.871 6.0664-6.0664 14.289-9.4844 22.871-9.5078zm-100.39 0h-0.003907c8.6055 0 16.855 3.418 22.938 9.5 6.082 6.0859 9.4961 14.34 9.4922 22.941-0.003906 8.6016-3.4258 16.852-9.5156 22.93-6.0859 6.0781-14.34 9.4883-22.941 9.4805-8.6055-0.007813-16.852-3.4336-22.926-9.5234-6.0781-6.0898-9.4844-14.344-9.4727-22.949 0.011719-8.582 3.4297-16.812 9.4961-22.883 6.0703-6.0703 14.301-9.4844 22.887-9.4961z"/>
  <path d="m429.08 412.55c3.2344-8.7305 2.3516-18.457-2.4062-26.461-4.7578-8.0039-12.879-13.43-22.098-14.758v-22.902h-9.1602v27.254c0 1.2148 0.48438 2.3789 1.3438 3.2383 0.85547 0.85938 2.0234 1.3398 3.2383 1.3398 7.082-0.11328 13.77 3.2695 17.879 9.043 4.1094 5.7734 5.1133 13.199 2.6836 19.859l-18.777-7.9219v-0.003906c-1.1484-0.45703-2.4258-0.45703-3.5742 0l-18.777 7.9258c-0.78516-2.2227-1.2031-4.5586-1.2344-6.918 0-2.5273-2.0508-4.5781-4.582-4.5781s-4.5781 2.0508-4.5781 4.5781c0.011719 3.5781 0.64453 7.1289 1.875 10.488l-145.64 61.008 17.312 2.7031 132.82-55.785h-0.003906c5.8203 7.7812 14.969 12.363 24.688 12.363s18.867-4.582 24.688-12.363l132.82 55.785 17.312-2.7031zm-29.082 11.312c-6.0117-0.015625-11.75-2.5195-15.848-6.9141l15.848-6.6875 15.848 6.6406h-0.003906c-4.0859 4.418-9.8281 6.9375-15.844 6.9609z"/>
 </g>
</svg>