<?xml version="1.0" encoding="UTF-8"?>
<!-- Uploaded to: ICON Repo, www.iconrepo.com, Generator: ICON Repo Mixer Tools -->
<svg fill="#000000" width="800px" height="800px" version="1.1" viewBox="144 144 512 512" xmlns="http://www.w3.org/2000/svg">
 <g>
  <path d="m602.71 578.82h-171.95c-3.9414 0-7.1133-3.1719-7.1133-7.1133 0-3.9414 3.1719-7.1133 7.1133-7.1133l171.95 0.003906c5.8984 0 10.668-4.7695 10.668-10.668v-342.36c0-5.8984-4.7695-10.668-10.668-10.668h-405.42c-5.8984 0-10.668 4.7695-10.668 10.668v342.35c0 5.8984 4.7695 10.668 10.668 10.668h171.95c3.9414 0 7.1133 3.1719 7.1133 7.1133 0 3.9414-3.1719 7.1133-7.1133 7.1133h-171.95c-13.723 0-24.895-11.172-24.895-24.895v-342.35c0-13.723 11.172-24.895 24.895-24.895h405.42c13.723 0 24.895 11.172 24.895 24.895v342.35c0 13.754-11.172 24.895-24.895 24.895z"/>
  <path d="m620.49 263.59h-440.98c-3.9414 0-7.1133-3.1719-7.1133-7.1133s3.1719-7.1133 7.1133-7.1133h440.98c3.9414 0 7.1133 3.1719 7.1133 7.1133s-3.1719 7.1133-7.1133 7.1133z"/>
  <path d="m580.45 232.26h-176.93c-3.9414 0-7.1133-3.1719-7.1133-7.1133 0-3.9414 3.1719-7.1133 7.1133-7.1133h176.93c3.9414 0 7.1133 3.1719 7.1133 7.1133-0.003906 3.9453-3.2031 7.1133-7.1133 7.1133z"/>
  <path d="m234.93 225.15c0 5.1719-4.1914 9.3633-9.3633 9.3633s-9.3672-4.1914-9.3672-9.3633c0-5.1719 4.1953-9.3672 9.3672-9.3672s9.3633 4.1953 9.3633 9.3672"/>
  <path d="m274.14 225.15c0 5.1719-4.1953 9.3633-9.3672 9.3633s-9.3633-4.1914-9.3633-9.3633c0-5.1719 4.1914-9.3672 9.3633-9.3672s9.3672 4.1953 9.3672 9.3672"/>
  <path d="m305.48 215.9c5.1055 0.82812 8.5742 5.6406 7.7461 10.746-0.82812 5.1055-5.6406 8.5703-10.746 7.7422s-8.5703-5.6406-7.7422-10.746 5.6367-8.5703 10.742-7.7422"/>
  <path d="m495.81 312.34h-88.348c-3.9414 0-7.1133-3.1719-7.1133-7.1133s3.1719-7.1133 7.1133-7.1133h88.344c3.9414 0 7.1133 3.1719 7.1133 7.1133 0.003906 3.9414-3.1992 7.1133-7.1094 7.1133z"/>
  <path d="m573.28 312.34h-54.945c-3.9414 0-7.1133-3.1719-7.1133-7.1133s3.1719-7.1133 7.1133-7.1133h54.945c3.9414 0 7.1133 3.1719 7.1133 7.1133-0.003906 3.9414-3.1719 7.1133-7.1133 7.1133z"/>
  <path d="m573.28 344.7h-99.488c-3.9414 0-7.1133-3.1719-7.1133-7.1133 0-3.9414 3.1719-7.1133 7.1133-7.1133h99.488c3.9414 0 7.1133 3.1719 7.1133 7.1133-0.003906 3.9414-3.1719 7.1133-7.1133 7.1133z"/>
  <path d="m451.62 344.7h-44.156c-3.9414 0-7.1133-3.1719-7.1133-7.1133 0-3.9414 3.1719-7.1133 7.1133-7.1133h44.156c3.9414 0 7.1133 3.1719 7.1133 7.1133 0 3.9414-3.1719 7.1133-7.1133 7.1133z"/>
  <path d="m482.92 377.09h-75.453c-3.9414 0-7.1133-3.1719-7.1133-7.1133 0-3.9414 3.1719-7.1133 7.1133-7.1133h75.453c3.9414 0 7.1133 3.1719 7.1133 7.1133 0 3.9414-3.1719 7.1133-7.1133 7.1133z"/>
  <path d="m573.28 377.09h-68.191c-3.9414 0-7.1133-3.1719-7.1133-7.1133 0-3.9414 3.1719-7.1133 7.1133-7.1133h68.191c3.9414 0 7.1133 3.1719 7.1133 7.1133-0.003906 3.9414-3.1719 7.1133-7.1133 7.1133z"/>
  <path d="m260.68 370.66c-1.5117 0-3.0234-0.47266-4.2969-1.4531l-33.961-25.961c-1.75-1.332-2.7852-3.4375-2.7852-5.6602 0-2.2227 1.0391-4.2969 2.7852-5.6602l33.961-25.961c3.1133-2.3711 7.5859-1.7773 9.957 1.332 2.3711 3.1133 1.7773 7.5859-1.332 9.957l-26.582 20.301 26.582 20.301c3.1133 2.3711 3.7344 6.8477 1.332 9.957-1.3906 1.8672-3.5273 2.8477-5.6602 2.8477z"/>
  <path d="m333.44 370.66c-2.1328 0-4.2656-0.94922-5.6602-2.7852-2.3711-3.1133-1.7773-7.5859 1.332-9.957l26.582-20.301-26.582-20.301c-3.1133-2.3711-3.7344-6.8477-1.332-9.957 2.3711-3.1133 6.8477-3.7344 9.957-1.332l33.992 25.961c1.75 1.332 2.7852 3.4375 2.7852 5.6602 0 2.2227-1.0391 4.2969-2.7852 5.6602l-33.992 25.961c-1.2734 0.91406-2.8164 1.3906-4.2969 1.3906z"/>
  <path d="m285.96 384.44c-0.62109 0-1.2734-0.089844-1.9258-0.26562-3.793-1.0664-5.9883-4.9805-4.9492-8.7734l22.227-79.453c1.0664-3.793 4.9805-5.9883 8.7734-4.9492 3.793 1.0664 5.9883 4.9805 4.9492 8.7734l-22.195 79.453c-0.92188 3.1367-3.7695 5.2148-6.8789 5.2148z"/>
  <path d="m400 613.32c-2.0156 0-3.9727-0.85938-5.3047-2.3711l-121.12-135.76c-2.6094-2.9336-2.3711-7.4375 0.5625-10.047 2.9336-2.6094 7.4375-2.3711 10.047 0.5625l115.82 129.8 115.82-129.84c2.6094-2.9336 7.1133-3.1992 10.047-0.5625 2.9336 2.6094 3.1992 7.1133 0.5625 10.047l-121.12 135.76c-1.3359 1.543-3.2891 2.4023-5.3047 2.4023z"/>
  <path d="m400 613.32c-2.9922 0-5.6602-1.8672-6.668-4.6836l-49.254-134.93-36.48-53.641c-2.2227-3.2617-1.3633-7.6758 1.8672-9.8672 3.2617-2.2227 7.6758-1.3633 9.8672 1.8672l36.957 54.352c0.32422 0.47266 0.59375 1.0078 0.80078 1.5703l42.91 117.48 42.883-117.48c0.20703-0.5625 0.47266-1.0664 0.80078-1.5703l36.957-54.352c2.2227-3.2617 6.6367-4.0898 9.8672-1.8672 3.2617 2.2227 4.0898 6.6367 1.8672 9.8672l-36.48 53.609-49.227 134.96c-1.0078 2.8125-3.6758 4.6797-6.668 4.6797z"/>
  <path d="m521.12 477.55h-242.25c-3.9414 0-7.1133-3.1719-7.1133-7.1133s3.1719-7.1133 7.1133-7.1133h242.24c3.9414 0 7.1133 3.1719 7.1133 7.1133 0.003906 3.9414-3.1992 7.1133-7.1094 7.1133z"/>
  <path d="m521.12 477.55h-242.25c-2.6094 0-4.9805-1.4219-6.2227-3.7031-1.2461-2.2812-1.1562-5.0391 0.23828-7.2305l34.613-54.352c1.3047-2.043 3.5547-3.2891 5.9883-3.2891l173.04-0.003907c2.4297 0 4.6836 1.2461 5.9883 3.2891l34.613 54.352c1.3945 2.1914 1.4805 4.9805 0.23828 7.2305-1.2461 2.2539-3.6758 3.707-6.2539 3.707zm-229.29-14.223h216.34l-25.547-40.125-165.25-0.003906z"/>
  <path d="m449.55 477.55h-99.102c-2.8164 0-5.3633-1.6602-6.5195-4.2383s-0.65234-5.5703 1.2461-7.6758l49.551-54.352c1.332-1.4805 3.2617-2.3125 5.2461-2.3125s3.9102 0.82813 5.2461 2.3125l49.551 54.352c1.8984 2.0742 2.4023 5.0977 1.2461 7.6758-1.1602 2.5781-3.6523 4.2383-6.4648 4.2383zm-82.98-14.223h66.887l-33.457-36.691z"/>
 </g>
</svg>